<?xml version="1.0" encoding="UTF-8"?><svg id="Layer_1" xmlns="http://www.w3.org/2000/svg" width="367.53" height="180" viewBox="0 0 367.53 180"><defs><style>.cls-1{fill:#489c22;}.cls-2{fill:#00a3d4;}.cls-3{fill:#dc0c43;}.cls-4{fill:#ffbf00;}.cls-5{fill:#2a3946;}</style></defs><path class="cls-4" d="M160,146.52c-17.65-18.26-37.09-42.76-37.18-56.61,.09-13.85,19.53-38.35,37.18-56.61-.54-.68-1.09-1.35-1.65-2.01-22.04,19.29-46.45,44.87-46.54,58.62,.09,13.75,24.5,39.33,46.54,58.62,.56-.66,1.11-1.33,1.65-2.01Z"/><path class="cls-2" d="M33.39,159.91c18.26-17.65,42.76-37.09,56.61-37.18,13.85,.09,38.35,19.53,56.61,37.18,.68-.54,1.35-1.09,2.01-1.65-19.29-22.04-44.87-46.45-58.62-46.54-13.75,.09-39.33,24.5-58.62,46.54,.66,.56,1.33,1.11,2.01,1.65Z"/><path class="cls-3" d="M20,33.29c17.65,18.26,37.09,42.76,37.18,56.61-.09,13.85-19.53,38.35-37.18,56.61,.54,.68,1.09,1.35,1.65,2.01,22.04-19.29,46.45-44.87,46.54-58.62-.09-13.75-24.5-39.33-46.54-58.62-.56,.66-1.11,1.33-1.65,2.01Z"/><path class="cls-1" d="M146.61,19.91c-18.26,17.65-42.76,37.09-56.61,37.18-13.85-.09-38.35-19.53-56.61-37.18-.68,.54-1.35,1.09-2.01,1.65,19.29,22.04,44.87,46.45,58.62,46.54,13.75-.09,39.33-24.5,58.62-46.54-.66-.56-1.33-1.11-2.01-1.65Z"/><path id="Path_307" class="cls-5" d="M306.17,146.85c-2.27,1.09-4.75,1.66-7.26,1.66-5.62,.35-10.45-3.92-10.8-9.54-.02-.39-.03-.78,0-1.17-.28-5.94,4.3-10.98,10.24-11.27,.36-.02,.73-.02,1.09,0,2.04,0,4.06,.39,5.96,1.14v2.7c-1.8-.91-3.78-1.37-5.79-1.37-4.34-.33-8.11,2.93-8.44,7.26-.03,.42-.03,.85,0,1.27,0,5.21,3.09,8.5,8.01,8.5,1.42,.04,2.83-.23,4.13-.78v-7.3h2.87v8.88h0Zm-39.55-20.11h2.8l12.6,16.63v-16.63h2.87v21.45h-2.51l-12.97-17,.1,17h-2.9v-21.46h0Zm-7.13,0h2.9v21.46h-2.9v-21.46Zm-22.49,0h2.8l12.6,16.63v-16.63h2.87v21.45h-2.51l-12.9-17,.03,17h-2.9v-21.46h0Zm-12.04,10.19c.97,.03,1.93-.2,2.77-.68,1.81-1.19,2.3-3.63,1.11-5.43-.2-.3-.44-.58-.72-.82-.92-.63-2.01-.94-3.13-.88h-1.95v7.81h1.92Zm-4.82-10.19h4.85c1.65-.09,3.29,.27,4.75,1.04,1.76,.98,2.81,2.87,2.73,4.88,.12,2.67-1.69,5.04-4.3,5.63v.07c1.1,.96,1.98,2.13,2.6,3.45l3.81,6.38h-3.38l-3.51-5.96c-1.01-1.79-1.82-2.77-2.43-2.93h-2.21v8.88h-2.91v-21.44h0Zm-8.07,13.44l-1.98-5.6-1.2-3.58h-.06c-.23,.78-.59,1.79-1.24,3.61l-2.03,5.57h6.52Zm-4.3-13.51h2.08l8.33,21.52h-3.09l-2.12-5.63h-8.31l-2.09,5.63h-2.99l8.18-21.52Zm-20.24,.06h10.85l-.85,2.38h-7.09v6.9h7v2.41h-7v7.39h8.08v2.38h-10.97v-21.46h-.01Zm-12.95,0h2.9v19.08h7.85v2.38h-10.74v-21.45h0Z"/><g><polygon class="cls-5" points="297.04 64.58 305.37 64.58 322.78 90.1 339.13 64.58 347.53 64.58 347.53 114.92 338.29 114.92 338.44 79.86 324.93 100.94 320.72 100.94 306.13 79.94 306.21 114.92 297.04 114.92 297.04 64.58 297.04 64.58"/><polygon class="cls-5" points="258.69 64.58 286.5 64.58 284.05 72.07 267.86 72.07 267.86 85.52 283.98 85.52 283.98 93 267.86 93 267.86 107.43 286.58 107.43 286.58 114.92 258.7 114.92 258.7 64.58 258.69 64.58"/><polygon class="cls-5" points="227.37 72.07 212.7 72.07 212.7 64.58 252.43 64.58 250.07 72.07 236.55 72.07 236.55 114.93 227.38 114.93 227.38 72.07 227.37 72.07"/><path class="cls-5" d="M178.18,104.31c3.33,2.37,7.3,3.65,11.38,3.67,4.2,0,8.4-1.6,8.4-5.96,0-9.85-21.77-8.63-21.77-23.98,0-7.41,5.88-13.9,16.35-13.9,4.24-.08,8.44,.78,12.3,2.52v8.41c-3.68-2.02-7.8-3.12-11.99-3.21-3.51,0-6.88,1.38-6.88,5.42,0,9.24,21.77,8.02,21.77,23.98,0,8.94-7.64,14.43-17.95,14.43-5.39,.1-10.68-1.42-15.21-4.35l3.59-7.02h0Z"/></g></svg>